<svg id="레이어_1" data-name="레이어 1" xmlns="http://www.w3.org/2000/svg" xmlns:xlink="http://www.w3.org/1999/xlink" viewBox="0 0 87.1 17.93"><defs><style>.cls-1{fill:#181f60;}.cls-2{fill:url(#linear-gradient);}.cls-3{fill:#003d8a;}.cls-4{fill:url(#linear-gradient-2);}</style><linearGradient id="linear-gradient" x1="42.72" y1="15.77" x2="48.82" y2="15.77" gradientUnits="userSpaceOnUse"><stop offset="0" stop-color="#141b63"/><stop offset="0.27" stop-color="#0d2773"/><stop offset="0.61" stop-color="#003c8d"/></linearGradient><linearGradient id="linear-gradient-2" x1="0.9" y1="10.36" x2="25.74" y2="10.36" gradientUnits="userSpaceOnUse"><stop offset="0" stop-color="#141b63"/><stop offset="0.53" stop-color="#003c8d"/></linearGradient></defs><title>logo</title><path class="cls-1" d="M31,16.55a2.29,2.29,0,0,1-1,1.94,3.63,3.63,0,0,1-1.21.53,6.69,6.69,0,0,1-1.63.19H25.6l-.61,0-1.5-.05H22.9v-.6a3.29,3.29,0,0,0,.72-.22c.16-.08.24-.15.24-.22V10.82l-.52.06L22.9,11l-.1-.66c.22,0,.48-.11.79-.16l1-.13c.34,0,.68-.08,1-.1s.66,0,1,0a7.76,7.76,0,0,1,1.52.13,4.35,4.35,0,0,1,1.14.38,2.08,2.08,0,0,1,.72.61,1.43,1.43,0,0,1,.24.81,2.13,2.13,0,0,1-.42,1.33,2.4,2.4,0,0,1-1.3.8,3.36,3.36,0,0,1,1,.33,2.74,2.74,0,0,1,.79.58,2.47,2.47,0,0,1,.52.79A2.41,2.41,0,0,1,31,16.55Zm-4.9-5.88h-.2v3.08H26a3.79,3.79,0,0,0,1.11-.13,1.6,1.6,0,0,0,.65-.36,1.19,1.19,0,0,0,.32-.52,2.49,2.49,0,0,0,.08-.61,1.81,1.81,0,0,0-.1-.63,1.09,1.09,0,0,0-.34-.46,1.84,1.84,0,0,0-.63-.28A4.58,4.58,0,0,0,26.07,10.67Zm.7,3.88a3.54,3.54,0,0,0-.52,0l-.38.07v3.5a.37.37,0,0,0,0,.09,1.66,1.66,0,0,0,.42.12,3.68,3.68,0,0,0,.51,0,2.27,2.27,0,0,0,1.54-.46,1.68,1.68,0,0,0,.5-1.28,3.31,3.31,0,0,0-.09-.77,1.68,1.68,0,0,0-.33-.67,1.66,1.66,0,0,0-.64-.48A2.57,2.57,0,0,0,26.77,14.55Z" transform="translate(-0.9 -1.39)"/><path class="cls-1" d="M31.09,19.11v-.6l.5-.1a1.51,1.51,0,0,0,.31-.11c.08,0,.13-.07.15-.11a.19.19,0,0,0,0-.12v-8a3.25,3.25,0,0,0,0-.5.49.49,0,0,0-.13-.27.55.55,0,0,0-.29-.12l-.48-.07V8.57l.73-.11a5.86,5.86,0,0,0,.63-.12,5.66,5.66,0,0,0,.59-.15A5.14,5.14,0,0,0,33.7,8l.33.32v9.76a.13.13,0,0,0,0,.11.44.44,0,0,0,.16.12l.3.11.49.1v.6Z" transform="translate(-0.9 -1.39)"/><path class="cls-1" d="M42.2,15.63a3.33,3.33,0,0,1-.13.94,4,4,0,0,1-1.67,2.22,3.5,3.5,0,0,1-.86.39,3.36,3.36,0,0,1-.95.14,3.4,3.4,0,0,1-1.38-.26,3.09,3.09,0,0,1-1.05-.71,3,3,0,0,1-.67-1.07,3.78,3.78,0,0,1-.24-1.36,3.71,3.71,0,0,1,.12-.93,3.66,3.66,0,0,1,.34-.87,3.74,3.74,0,0,1,.54-.76,3.83,3.83,0,0,1,.73-.6,3.19,3.19,0,0,1,.88-.39,3.29,3.29,0,0,1,1-.15,3.56,3.56,0,0,1,1.37.26,3.09,3.09,0,0,1,1,.71A3.36,3.36,0,0,1,42,14.27,3.77,3.77,0,0,1,42.2,15.63Zm-2,.36a5.35,5.35,0,0,0-.1-1.08,3.89,3.89,0,0,0-.28-.91,1.76,1.76,0,0,0-.47-.62,1,1,0,0,0-.65-.22,1.09,1.09,0,0,0-.67.19,1.27,1.27,0,0,0-.42.54,3,3,0,0,0-.22.81,8,8,0,0,0-.06,1,5.07,5.07,0,0,0,.11,1.06,3.67,3.67,0,0,0,.31.85,1.57,1.57,0,0,0,.48.56,1,1,0,0,0,.6.21,1.26,1.26,0,0,0,.67-.16,1.15,1.15,0,0,0,.42-.45A2.86,2.86,0,0,0,40.1,17,7.83,7.83,0,0,0,40.16,16Z" transform="translate(-0.9 -1.39)"/><path class="cls-2" d="M48.82,17.74a6.11,6.11,0,0,1-.88.84,3.75,3.75,0,0,1-.78.48,2.68,2.68,0,0,1-.71.21,5.19,5.19,0,0,1-.68.05,3,3,0,0,1-2.13-.9A3.3,3.3,0,0,1,43,17.35a4,4,0,0,1-.25-1.43A3.72,3.72,0,0,1,43,14.47a3.51,3.51,0,0,1,.81-1.17,3.93,3.93,0,0,1,1.24-.79,4.35,4.35,0,0,1,1.61-.29c.15,0,.34,0,.55,0a6.18,6.18,0,0,1,.62.12,4.09,4.09,0,0,1,.56.18,1,1,0,0,1,.38.23.65.65,0,0,1,0,.22c0,.11,0,.23-.08.37s-.08.29-.13.45-.09.31-.14.46l-.14.38c-.05.11-.08.18-.11.23l-.55-.07c-.1-.29-.19-.54-.28-.75a2.57,2.57,0,0,0-.32-.52,1.08,1.08,0,0,0-.38-.3,1,1,0,0,0-.47-.1,1.24,1.24,0,0,0-.56.13,1.32,1.32,0,0,0-.48.44,2.57,2.57,0,0,0-.34.78,5.08,5.08,0,0,0-.12,1.19,3.35,3.35,0,0,0,.13,1,2.09,2.09,0,0,0,.37.73,1.68,1.68,0,0,0,.57.46,1.63,1.63,0,0,0,.7.15l.39,0a1.93,1.93,0,0,0,.42-.12,2.83,2.83,0,0,0,.51-.24,5.71,5.71,0,0,0,.64-.42Z" transform="translate(-0.9 -1.39)"/><path class="cls-3" d="M59,10.67a6.2,6.2,0,0,0-.76.18.5.5,0,0,0-.35.29l-2.67,7.33a.76.76,0,0,1-.23.29,2.27,2.27,0,0,1-.38.25,3.66,3.66,0,0,1-.46.18l-.44.13-3.3-8.18a.67.67,0,0,0-.28-.3,1.93,1.93,0,0,0-.66-.17v-.6h3.83v.6a4.24,4.24,0,0,0-.47.05l-.28.09a.27.27,0,0,0-.12.14.31.31,0,0,0,0,.18l2.25,5.73,2-5.72a.28.28,0,0,0,0-.18.18.18,0,0,0-.12-.12,1,1,0,0,0-.28-.1l-.48-.07v-.6H59Z" transform="translate(-0.9 -1.39)"/><path class="cls-3" d="M58.89,19.11v-.6a2.72,2.72,0,0,0,.71-.22c.15-.08.23-.15.23-.22V14.52c0-.25,0-.44,0-.59a.74.74,0,0,0-.08-.36.46.46,0,0,0-.27-.18,2.83,2.83,0,0,0-.58-.09v-.57c.45-.06.87-.13,1.24-.21a9.33,9.33,0,0,0,1.1-.3h.53v5.85c0,.06.07.13.21.22a2.57,2.57,0,0,0,.72.22v.6Zm3.16-9a1,1,0,0,1-.1.46,1.09,1.09,0,0,1-.28.36,1.4,1.4,0,0,1-.42.22,1.78,1.78,0,0,1-.53.08,1.4,1.4,0,0,1-.41,0A1,1,0,0,1,60,11a.81.81,0,0,1-.26-.26.72.72,0,0,1-.09-.37,1.2,1.2,0,0,1,.1-.47A1.09,1.09,0,0,1,60,9.54a1.4,1.4,0,0,1,.42-.22,1.72,1.72,0,0,1,.52-.08,1.92,1.92,0,0,1,.41,0,1.22,1.22,0,0,1,.35.14.88.88,0,0,1,.25.26A.65.65,0,0,1,62.05,10.07Z" transform="translate(-0.9 -1.39)"/><path class="cls-3" d="M68.35,17.08a1.94,1.94,0,0,1-.56,1.48,1.94,1.94,0,0,1-.58.4,3.15,3.15,0,0,1-.65.23,5,5,0,0,1-.64.11l-.54,0-.53,0a4.28,4.28,0,0,1-.59-.1,5.5,5.5,0,0,1-.58-.16,5.06,5.06,0,0,1-.52-.23s-.06-.1-.07-.26a4.85,4.85,0,0,1,0-.58,5.85,5.85,0,0,1,0-.71,3.74,3.74,0,0,1,.11-.67l.67.07a3.07,3.07,0,0,0,.26.74,2.52,2.52,0,0,0,.4.54,1.64,1.64,0,0,0,.5.34,1.34,1.34,0,0,0,.56.12,1.39,1.39,0,0,0,.74-.15.61.61,0,0,0,.22-.55,1,1,0,0,0-.14-.52,2.5,2.5,0,0,0-.38-.43,4,4,0,0,0-.55-.37L64.85,16a6.08,6.08,0,0,1-.6-.34,3.74,3.74,0,0,1-.55-.41,2.1,2.1,0,0,1-.4-.5,1.26,1.26,0,0,1-.15-.62,1.39,1.39,0,0,1,.23-.8,1.87,1.87,0,0,1,.61-.61,2.94,2.94,0,0,1,.86-.39,3.72,3.72,0,0,1,1-.14c.22,0,.44,0,.66,0l.62.11a3.94,3.94,0,0,1,.55.18,1.46,1.46,0,0,1,.41.23s0,.11,0,.25-.05.32-.09.51-.1.37-.17.55a1.42,1.42,0,0,1-.2.41l-.56-.06a2.12,2.12,0,0,0-.45-1,1.07,1.07,0,0,0-.84-.38,1.09,1.09,0,0,0-.65.17.58.58,0,0,0-.22.48.75.75,0,0,0,.11.4,1.21,1.21,0,0,0,.31.34,4.39,4.39,0,0,0,.52.32l.72.38.62.34a2.58,2.58,0,0,1,.57.41,2.15,2.15,0,0,1,.41.53A1.54,1.54,0,0,1,68.35,17.08Z" transform="translate(-0.9 -1.39)"/><path class="cls-3" d="M68.7,19.11v-.6a2.72,2.72,0,0,0,.71-.22c.15-.08.23-.15.23-.22V14.52c0-.25,0-.44,0-.59a.74.74,0,0,0-.08-.36.46.46,0,0,0-.27-.18,2.83,2.83,0,0,0-.58-.09v-.57c.45-.06.87-.13,1.25-.21a9.72,9.72,0,0,0,1.09-.3h.53v5.85c0,.06.07.13.21.22a2.57,2.57,0,0,0,.72.22v.6Zm3.16-9a1,1,0,0,1-.1.46,1.09,1.09,0,0,1-.28.36,1.4,1.4,0,0,1-.42.22,1.78,1.78,0,0,1-.53.08,1.4,1.4,0,0,1-.41,0,1,1,0,0,1-.35-.15.81.81,0,0,1-.26-.26.72.72,0,0,1-.09-.37,1,1,0,0,1,.11-.47,1,1,0,0,1,.28-.35,1.4,1.4,0,0,1,.42-.22,1.72,1.72,0,0,1,.52-.08,1.92,1.92,0,0,1,.41,0,1.22,1.22,0,0,1,.35.14.88.88,0,0,1,.25.26A.65.65,0,0,1,71.86,10.07Z" transform="translate(-0.9 -1.39)"/><path class="cls-3" d="M79.63,15.63a3.34,3.34,0,0,1-.14.94,4.14,4.14,0,0,1-.37.87,3.38,3.38,0,0,1-.57.75,3.83,3.83,0,0,1-.73.6,3.5,3.5,0,0,1-.86.39,3.36,3.36,0,0,1-.95.14,3.43,3.43,0,0,1-1.38-.26,3.09,3.09,0,0,1-1-.71,3,3,0,0,1-.67-1.07,3.78,3.78,0,0,1-.24-1.36,3.71,3.71,0,0,1,.12-.93,3.66,3.66,0,0,1,.34-.87,3.74,3.74,0,0,1,.54-.76,3.83,3.83,0,0,1,.73-.6,3.32,3.32,0,0,1,.88-.39,3.29,3.29,0,0,1,1-.15,3.56,3.56,0,0,1,1.37.26,3.09,3.09,0,0,1,1,.71,3.19,3.19,0,0,1,.68,1.08A3.78,3.78,0,0,1,79.63,15.63Zm-2,.36a5.35,5.35,0,0,0-.1-1.08A3.47,3.47,0,0,0,77.2,14a1.76,1.76,0,0,0-.47-.62,1,1,0,0,0-.65-.22,1.11,1.11,0,0,0-.67.19,1.27,1.27,0,0,0-.42.54,3.39,3.39,0,0,0-.22.81,8,8,0,0,0-.06,1,5.07,5.07,0,0,0,.11,1.06,3.67,3.67,0,0,0,.31.85,1.57,1.57,0,0,0,.48.56,1,1,0,0,0,.6.21,1.26,1.26,0,0,0,.67-.16,1,1,0,0,0,.42-.45,2.86,2.86,0,0,0,.22-.76A7.83,7.83,0,0,0,77.58,16Z" transform="translate(-0.9 -1.39)"/><path class="cls-3" d="M84.2,19.11v-.6a3.89,3.89,0,0,0,.72-.24c.14-.06.21-.13.21-.2V15a5.6,5.6,0,0,0,0-.64A1.55,1.55,0,0,0,85,14a.47.47,0,0,0-.22-.22.67.67,0,0,0-.33-.07l-.32,0a2.06,2.06,0,0,0-.37.1,3.31,3.31,0,0,0-.47.19c-.18.09-.38.2-.61.34v3.76c0,.08.08.15.23.23a4,4,0,0,0,.7.21v.6h-3.8v-.6a4.22,4.22,0,0,0,.7-.22c.16-.06.23-.14.23-.22V14.22c0-.18,0-.33,0-.44a.47.47,0,0,0-.09-.26.57.57,0,0,0-.27-.14l-.56-.08v-.57l.7-.09.62-.1.56-.14c.19-.05.37-.11.56-.18l.32.33.08.78a7.68,7.68,0,0,1,.85-.53,6.06,6.06,0,0,1,.75-.34,3,3,0,0,1,.66-.18,3.19,3.19,0,0,1,.59-.06,2,2,0,0,1,.6.1,1.29,1.29,0,0,1,.5.33,1.6,1.6,0,0,1,.36.6,2.86,2.86,0,0,1,.13.9v3.92a.13.13,0,0,0,0,.1.46.46,0,0,0,.14.1l.29.11.46.13v.6Z" transform="translate(-0.9 -1.39)"/><path class="cls-4" d="M22.75,4.58a4.47,4.47,0,0,0-4.81.92c-2.11,1.7-4.37,9-4.37,9-.43,1.34-.89.05-1.08-.4-.11-.24-1.23-3.94-3-4,0,0,4.36-2.09,4.4-5.45,0,0,.53-4-5.75-3.09A13.36,13.36,0,0,0,1.27,4.9s-.13.65,0,.78a5.82,5.82,0,0,1,1-.78c.44-.22,1.62-.92,1.09.39,0,0-3,7.05-2.44,9.71a4.47,4.47,0,0,0,3.1,3.79,11.29,11.29,0,0,0,3.61.35s-3.09-1.83-2.79-3.92A34.23,34.23,0,0,1,6.45,8.35c.79-2,1.74-4.06,1.48-4.94s-.52-1-.74-1c0,0,2.31-.79,3,.3a4.25,4.25,0,0,1-.11,4.17,7,7,0,0,1-2,2.8s-1.35.83-.83,1.27c0,0,1.13.48,1,1.3a22.37,22.37,0,0,0-.61,4.1A1.41,1.41,0,0,0,9,17.53h1.39s.52-1.6.87-3.06v0s.27-.71.47-.06c.65,2.48,1.93,5.79,3.71,4.66,1.2-.76,2-3.62,2.46-5a32.82,32.82,0,0,1,3.21-6.27c1.1-1.8,4.65-1.22,4.65-1.22A11.34,11.34,0,0,0,22.75,4.58Z" transform="translate(-0.9 -1.39)"/><path class="cls-3" d="M76.09,8.08H73.64l-.31,0V7.7l.31,0h2.75l.31,0v.4l-.31,0Zm.2-1.63v1H73.74v-1a.66.66,0,0,0,0-.14.86.86,0,0,0,0-.15h.47a1,1,0,0,0,0,.15V6.5h1.69v0a.76.76,0,0,0,0-.15.86.86,0,0,0,0-.15h.47a.86.86,0,0,0,0,.15A.66.66,0,0,0,76.29,6.45ZM73.75,9.94V9h2V8.72h-2V8.35H76.3c0,.05,0,.1,0,.16v.78h-2v.28h1.92l.19,0V10l-.19,0H73.75Zm2.11-2.82v-.3H74.17v.3Z" transform="translate(-0.9 -1.39)"/><path class="cls-3" d="M78.83,7.85v.3H80l.31,0v.42H76.93V8.13l.31,0h1.11v-.3h-1v-1h2V6.59H77.53l-.17,0v-.4l.18,0h2.35a.88.88,0,0,0,0,.16v.82H77.81v.28h2.12v.39h-1.1Zm1,1.74a1.34,1.34,0,0,0,0,.2,1.34,1.34,0,0,0,0,.2h-.48c0-.06,0-.13,0-.2V9.16H77.31V8.77H79.9a1,1,0,0,0,0,.16v.65Z" transform="translate(-0.9 -1.39)"/><path class="cls-3" d="M82.54,9.06H80.82V6.57a1.48,1.48,0,0,0,0-.21h.46a1.48,1.48,0,0,0,0,.21,1.55,1.55,0,0,0,0,.22v.48h.87V6.79a1.55,1.55,0,0,0,0-.22,1.48,1.48,0,0,0,0-.21h.46a1.48,1.48,0,0,0,0,.21c0,.07,0,.14,0,.22Zm-.42-.4v-1h-.87v1Zm1.5.73v.29a2.83,2.83,0,0,0,0,.29h-.48a2.83,2.83,0,0,0,0-.29V6.44c0-.09,0-.19,0-.29h.48c0,.1,0,.2,0,.29v3Z" transform="translate(-0.9 -1.39)"/><path class="cls-3" d="M85.07,6.71H84.4V6.3h1.81v.43h-.68v.22a1,1,0,0,0,.08.38,1.17,1.17,0,0,0,.19.3,1.75,1.75,0,0,0,.29.26,1.82,1.82,0,0,0,.32.15l-.16.18-.12.16-.22-.12L85.65,8a1.89,1.89,0,0,1-.2-.2.85.85,0,0,1-.14-.21,1.27,1.27,0,0,1-.13.22,1.83,1.83,0,0,1-.46.44,1.91,1.91,0,0,1-.27.16l-.14-.14-.19-.18a1.44,1.44,0,0,0,.42-.23,1.52,1.52,0,0,0,.33-.34,1.4,1.4,0,0,0,.15-.3.93.93,0,0,0,0-.34Zm-.21,3.18V8.82a.78.78,0,0,0,0-.16h.48a.78.78,0,0,0,0,.16v.67h1.84l.25,0v.44l-.25,0H84.86Zm2-2.45h-.69V7l.15,0h.54V6.59a1.55,1.55,0,0,0,0-.22,1.7,1.7,0,0,0,0-.22h.47a1.8,1.8,0,0,0,0,.22V8.74a1.49,1.49,0,0,0,0,.21h-.47a1.48,1.48,0,0,0,0-.21,1.55,1.55,0,0,0,0-.22Z" transform="translate(-0.9 -1.39)"/></svg>